<svg xmlns="http://www.w3.org/2000/svg" version="1.1" xmlns:xlink="http://www.w3.org/1999/xlink" width="33" height="28"><svg width="33" height="28" viewBox="0 0 33 28" fill="none" xmlns="http://www.w3.org/2000/svg">
<path d="M16.2436 7.09621C14.7531 7.93737 12.6466 7.96264 11.1376 7.15815C10.0953 6.60241 8.9154 6.28904 7.66565 6.28904C3.43204 6.28904 0 9.88465 0 14.32C0 18.7554 3.43204 22.3509 7.66565 22.3509C8.97908 22.3509 10.2154 22.0048 11.296 21.395C12.7864 20.5538 14.893 20.5286 16.4019 21.3331C17.4443 21.8888 18.6242 28 19.8739 28C24.1076 28 33 18.6066 33 14.1713C33 9.73585 24.1076 0 19.8739 0C18.5605 0 17.3242 6.48636 16.2436 7.09621Z" fill="#FC6D3E"></path>
</svg><style>@media (prefers-color-scheme: light) { :root { filter: none; } }
@media (prefers-color-scheme: dark) { :root { filter: none; } }
</style></svg>