<svg xmlns="http://www.w3.org/2000/svg" xmlns:xlink="http://www.w3.org/1999/xlink" width="16px"
    height="16px" viewBox="0 0 16 16" version="1.1">
    <g>
        <path
            d="M 5 3.875 L 13.09375 3.875 L 11.234375 5.734375 C 11.167969 5.804688 11.125 5.894531 11.125 6 C 11.125 6.207031 11.292969 6.375 11.5 6.375 C 11.605469 6.375 11.699219 6.332031 11.765625 6.265625 L 14.265625 3.765625 C 14.277344 3.753906 14.273438 3.734375 14.285156 3.71875 C 14.304688 3.691406 14.332031 3.675781 14.347656 3.644531 C 14.351562 3.617188 14.355469 3.589844 14.355469 3.558594 C 14.355469 3.554688 14.355469 3.550781 14.355469 3.542969 C 14.359375 3.523438 14.363281 3.5 14.363281 3.476562 C 14.363281 3.476562 14.363281 3.472656 14.363281 3.472656 C 14.359375 3.378906 14.324219 3.296875 14.265625 3.234375 L 11.765625 0.734375 C 11.695312 0.667969 11.601562 0.625 11.5 0.625 C 11.292969 0.625 11.125 0.792969 11.125 1 C 11.125 1.105469 11.164062 1.199219 11.234375 1.265625 L 13.09375 3.125 L 5 3.125 C 4.890625 3.113281 4.761719 3.109375 4.636719 3.109375 C 2.460938 3.109375 0.691406 4.835938 0.625 6.992188 L 0.625 6.996094 C 0.625 7 0.625 7 0.625 7 C 0.625 7.207031 0.792969 7.375 0.996094 7.375 L 1 7.375 C 1.207031 7.375 1.375 7.210938 1.375 7.003906 C 1.375 6.875 1.4375 3.878906 5 3.875 Z M 15.003906 8.625 L 15 8.625 C 14.792969 8.625 14.628906 8.792969 14.625 8.996094 C 14.621094 9.125 14.546875 12.121094 11 12.125 L 2.90625 12.125 L 4.765625 10.265625 C 4.832031 10.199219 4.875 10.105469 4.875 10 C 4.875 9.792969 4.707031 9.625 4.5 9.625 C 4.394531 9.625 4.300781 9.667969 4.234375 9.734375 L 1.734375 12.234375 C 1.722656 12.246094 1.726562 12.265625 1.714844 12.28125 C 1.695312 12.304688 1.667969 12.324219 1.652344 12.355469 C 1.648438 12.382812 1.644531 12.410156 1.644531 12.441406 C 1.644531 12.445312 1.644531 12.449219 1.644531 12.457031 L 1.644531 12.453125 C 1.640625 12.476562 1.636719 12.5 1.636719 12.523438 C 1.636719 12.523438 1.636719 12.527344 1.636719 12.527344 C 1.640625 12.621094 1.675781 12.703125 1.734375 12.765625 L 4.234375 15.265625 C 4.304688 15.335938 4.398438 15.375 4.5 15.375 C 4.710938 15.375 4.878906 15.207031 4.878906 15 C 4.878906 14.898438 4.835938 14.800781 4.765625 14.734375 L 2.90625 12.875 L 11 12.875 C 11.109375 12.886719 11.238281 12.890625 11.367188 12.890625 C 13.539062 12.890625 15.308594 11.164062 15.375 9.007812 L 15.375 9.003906 C 15.375 9 15.375 9 15.375 9 C 15.375 8.796875 15.210938 8.628906 15.003906 8.625 Z M 8.441406 10.699219 L 8.636719 10.699219 C 8.773438 10.699219 8.886719 10.585938 8.886719 10.449219 L 8.886719 5.550781 C 8.886719 5.414062 8.773438 5.300781 8.636719 5.300781 L 8.476562 5.300781 C 8.429688 5.300781 8.386719 5.3125 8.351562 5.335938 L 8.351562 5.332031 L 7.242188 5.957031 C 7.164062 6 7.113281 6.082031 7.113281 6.175781 L 7.113281 6.398438 C 7.113281 6.535156 7.226562 6.648438 7.363281 6.648438 C 7.410156 6.648438 7.449219 6.636719 7.488281 6.617188 L 7.484375 6.617188 L 8.191406 6.222656 L 8.191406 10.449219 C 8.191406 10.585938 8.304688 10.699219 8.441406 10.699219 Z M 8.441406 10.699219 " />
    </g>
</svg>
                            