<svg width="13" height="15" viewBox="0 0 13 15" fill="none" xmlns="http://www.w3.org/2000/svg">
<path d="M12.0385 8.91375C11.9679 8.98625 11.7012 9.29625 11.4528 9.55125C9.99635 11.155 6.19703 13.78 4.20848 14.5813C3.90648 14.71 3.14296 14.9825 2.73502 15C2.34413 15 1.97151 14.91 1.61593 14.7275C1.17267 14.4725 0.817097 14.0713 0.62226 13.5975C0.496834 13.2688 0.301997 12.285 0.301997 12.2675C0.10716 11.1913 0 9.4425 0 7.51C0 5.66875 0.10716 3.99125 0.266683 2.89875C0.284949 2.88125 0.479786 1.65875 0.692888 1.24C1.08378 0.475 1.8473 0 2.66439 0H2.73502C3.26717 0.01875 4.38626 0.49375 4.38626 0.51125C6.26766 1.31375 9.9793 3.81 11.471 5.46875C11.471 5.46875 11.8911 5.895 12.0738 6.16125C12.3587 6.54375 12.5 7.0175 12.5 7.49125C12.5 8.02 12.3405 8.5125 12.0385 8.91375Z" fill="white"/>
</svg>
